HIERARCHY
ROOT SpineBase
{
  OFFSET 0.000000 0.000000 0.000000
  CHANNELS 6 Xposition Yposition Zposition Zrotation Xrotation Yrotation
  JOINT SpineMid
  {
    OFFSET 0.000000 28.927653 0.000000
    CHANNELS 3 Zrotation Xrotation Yrotation
    JOINT SpineShoulder
    {
      OFFSET -0.034058 21.531218 -0.744981
      CHANNELS 3 Zrotation Xrotation Yrotation
      JOINT Neck
      {
        OFFSET -0.023143 7.139424 -0.546227
        CHANNELS 3 Zrotation Xrotation Yrotation
        JOINT Head
        {
          OFFSET -1.936779 12.537749 -1.029811
          CHANNELS 3 Zrotation Xrotation Yrotation
          End Site
          {
            OFFSET 0 0 0
          }
        }
      }
      JOINT ShoulderLeft
      {
        OFFSET -16.534870 -2.193619 5.151809
        CHANNELS 3 Zrotation Xrotation Yrotation
        JOINT ElbowLeft
        {
          OFFSET -4.355506 -26.023458 3.951199
          CHANNELS 3 Zrotation Xrotation Yrotation
          JOINT WristLeft
          {
            OFFSET -4.366382 -19.892670 -3.338965
            CHANNELS 3 Zrotation Xrotation Yrotation
            JOINT HandLeft
            {
              OFFSET -0.662475 -6.702097 -2.406483
              CHANNELS 3 Zrotation Xrotation Yrotation
              JOINT HandTipLeft
              {
                OFFSET -0.797465 -6.800042 -1.826029
                CHANNELS 3 Zrotation Xrotation Yrotation
                End Site
                {
                  OFFSET 0 0 0
                }
              }
              JOINT ThumbLeft
              {
                OFFSET -2.291979 -0.572548 -1.984975
                CHANNELS 3 Zrotation Xrotation Yrotation
                End Site
                {
                  OFFSET 0 0 0
                }
              }
            }
          }
        }
      }
      JOINT ShoulderRight
      {
        OFFSET 15.546444 -1.937287 -5.264913
        CHANNELS 3 Zrotation Xrotation Yrotation
        JOINT ElbowRight
        {
          OFFSET 6.744750 -25.464530 -2.487803
          CHANNELS 3 Zrotation Xrotation Yrotation
          JOINT WristRight
          {
            OFFSET 3.256047 -20.241810 -5.942648
            CHANNELS 3 Zrotation Xrotation Yrotation
            JOINT HandRight
            {
              OFFSET 0.121363 -8.229961 -2.943344
              CHANNELS 3 Zrotation Xrotation Yrotation
              JOINT HandTipRight
              {
                OFFSET 0.545938 -6.270841 -1.388831
                CHANNELS 3 Zrotation Xrotation Yrotation
                End Site
                {
                  OFFSET 0 0 0
                }
              }
              JOINT ThumbRight
              {
                OFFSET 1.870098 -1.439343 -3.250907
                CHANNELS 3 Zrotation Xrotation Yrotation
                End Site
                {
                  OFFSET 0 0 0
                }
              }
            }
          }
        }
      }
    }
  }
  JOINT HipLeft
  {
    OFFSET -7.151105 0.412885 -1.654297
    CHANNELS 3 Zrotation Xrotation Yrotation
    JOINT KneeLeft
    {
      OFFSET -5.974671 -31.591075 3.911886
      CHANNELS 3 Zrotation Xrotation Yrotation
      JOINT AnkleLeft
      {
        OFFSET 0.560392 -33.766599 8.618864
        CHANNELS 3 Zrotation Xrotation Yrotation
        JOINT FootLeft
        {
          OFFSET -2.981058 -3.275309 -13.193310
          CHANNELS 3 Zrotation Xrotation Yrotation
          End Site
          {
            OFFSET 0 0 0
          }
        }
      }
    }
  }
  JOINT HipRight
  {
    OFFSET 6.775258 1.023398 -4.811892
    CHANNELS 3 Zrotation Xrotation Yrotation
    JOINT KneeRight
    {
      OFFSET 3.102958 -27.139402 3.323933
      CHANNELS 3 Zrotation Xrotation Yrotation
      JOINT AnkleRight
      {
        OFFSET 2.763247 -40.202131 9.752853
        CHANNELS 3 Zrotation Xrotation Yrotation
        JOINT FootRight
        {
          OFFSET -3.038590 -3.659221 -12.442814
          CHANNELS 3 Zrotation Xrotation Yrotation
          End Site
          {
            OFFSET 0 0 0
          }
        }
      }
    }
  }
}
MOTION
Frames: 7
Frame Time: 0.033333
2.469591 73.349960 352.377617 -0.009777 -1.632917 22.449479 0.105947 0.290208 -22.452554 0.080838 0.255731 0.002801 -14.725342 9.438957 1.477553 0.000000 0.000000 0.000000 -29.669035 -11.075842 -4.922921 -6.495177 6.364916 12.011810 -1.551870 -2.072844 6.669390 4.994963 -2.917131 -5.456301 0.000000 0.000000 0.000000 0.000000 0.000000 0.000000 98.743721 67.528312 -55.806383 132.994153 29.615103 105.426740 -31.640154 44.270796 -46.826722 40.577667 -3.198986 96.367615 0.000000 0.000000 0.000000 0.000000 0.000000 0.000000 6.957111 0.524729 -22.080728 -1.415236 15.583652 0.342863 -7.248568 -21.731714 10.675238 0.000000 0.000000 0.000000 8.155503 -4.220041 -21.445628 6.632585 -5.312537 2.998569 -17.947263 4.895431 10.296378 0.000000 0.000000 0.000000
1.469184 73.049678 351.917241 0.729442 -1.380748 25.262097 -0.013458 0.375026 -25.235696 -0.013907 0.251182 0.020277 -16.920176 11.291986 2.041180 0.000000 0.000000 0.000000 -26.193591 -8.460802 -3.991972 -10.987651 6.517707 11.616068 0.641596 1.109212 6.938040 3.732302 -5.592187 -5.235012 0.000000 0.000000 0.000000 0.000000 0.000000 0.000000 142.428653 75.025922 -104.323931 122.653497 36.375798 87.325822 -52.924377 35.349732 -34.495438 50.232946 3.340796 85.552341 0.000000 0.000000 0.000000 0.000000 0.000000 0.000000 6.523568 -0.097140 -24.752677 -1.377232 15.534023 0.302605 -6.639204 -24.711793 10.546520 0.000000 0.000000 0.000000 9.003538 -5.646443 -23.863595 4.998572 -5.559568 2.936039 -19.436145 3.810959 16.215873 0.000000 0.000000 0.000000
0.518121 72.936450 351.621778 0.629657 -1.484208 29.645404 -0.227579 0.523835 -29.628006 -0.046884 0.272568 0.002802 -14.964955 14.191979 2.892184 0.000000 0.000000 0.000000 -22.243409 -5.704693 -3.123398 -15.195454 6.355192 11.068403 3.713284 2.482878 6.543002 0.370746 -4.363715 -3.991108 0.000000 0.000000 0.000000 0.000000 0.000000 0.000000 -164.315219 68.877802 -163.987744 84.084782 39.002059 45.208054 -48.940330 -34.025132 -11.702709 50.687291 12.417422 44.942244 0.000000 0.000000 0.000000 0.000000 0.000000 0.000000 6.926834 -0.457639 -29.141004 -1.130875 15.088087 0.398587 -4.460149 -31.430660 9.105535 0.000000 0.000000 0.000000 10.637882 -7.801775 -27.757497 3.044689 -5.086177 2.798868 -21.651391 5.307739 20.381679 0.000000 0.000000 0.000000
-0.461373 72.989048 351.389601 0.054696 -1.878616 34.141027 -0.138541 0.536983 -34.147726 0.002263 0.300031 -0.015576 -13.313719 18.362345 4.058344 0.000000 0.000000 0.000000 -18.003599 -3.383264 -2.292483 -18.267738 5.505461 10.043059 3.588964 6.474764 7.307110 0.855459 -4.190168 -3.949252 0.000000 0.000000 0.000000 0.000000 0.000000 0.000000 -143.111383 55.872541 165.795371 19.591315 39.996672 5.391180 70.929171 -37.998407 80.465028 23.981891 37.203429 -4.512940 0.000000 0.000000 0.000000 0.000000 0.000000 0.000000 8.192165 -1.058410 -33.608371 -1.369223 14.479874 0.447490 -2.390288 -36.944915 5.534116 0.000000 0.000000 0.000000 12.813589 -10.771234 -31.607406 0.288296 -4.173969 2.529357 -21.060615 2.385005 21.601199 0.000000 0.000000 0.000000
-1.270992 73.223395 351.133638 -0.697325 -2.447680 38.289899 0.037403 0.437470 -38.333302 0.067189 0.352433 -0.034985 -8.789163 24.080052 5.117820 0.000000 0.000000 0.000000 -13.820350 -1.717335 -1.566387 -20.309916 3.795732 8.850255 0.471657 11.579122 9.006732 5.160407 -3.044337 -4.268751 0.000000 0.000000 0.000000 0.000000 0.000000 0.000000 -133.626772 42.554455 144.551813 -10.093402 27.965608 -11.967495 74.921230 -9.068975 56.095663 -28.370368 39.555894 -16.749188 0.000000 0.000000 0.000000 0.000000 0.000000 0.000000 9.683827 -1.781877 -37.719916 -1.619438 13.861060 0.499913 -0.708009 -42.427449 0.690756 0.000000 0.000000 0.000000 14.544267 -12.861940 -35.250147 -1.437074 -4.062269 2.409666 -21.367286 1.989630 22.404693 0.000000 0.000000 0.000000
-1.994631 73.566066 350.816700 -1.436994 -2.920206 41.534764 0.505327 0.192655 -41.617470 0.193813 0.454782 -0.037536 -3.613989 28.741712 5.287768 0.000000 0.000000 0.000000 -10.438104 -1.449864 -1.026618 -20.499653 1.890491 7.697851 -4.408710 19.914520 11.778409 8.736430 -3.673580 -4.355520 0.000000 0.000000 0.000000 0.000000 0.000000 0.000000 -127.679102 31.685154 123.650184 -14.328681 10.811783 -15.166984 34.795028 -8.670417 11.960153 -21.309913 9.924687 -13.953127 0.000000 0.000000 0.000000 0.000000 0.000000 0.000000 11.002495 -2.890435 -40.816470 -2.031037 13.608413 0.459804 0.250134 -47.183489 -4.091712 0.000000 0.000000 0.000000 15.955867 -14.855281 -38.018678 -3.030960 -4.154857 2.290954 -21.412567 2.111302 22.500051 0.000000 0.000000 0.000000
-2.483133 73.975997 350.490541 -1.940877 -3.364391 43.492212 1.015053 -0.118942 -43.604912 0.256549 0.536980 -0.032193 1.557394 32.782107 4.835402 0.000000 0.000000 0.000000 -7.958097 -2.528067 -0.507303 -20.241035 0.912512 7.097389 -7.003417 25.227028 13.055650 9.603511 0.513939 -3.620579 0.000000 0.000000 0.000000 0.000000 0.000000 0.000000 -123.415977 24.883086 105.640762 -17.460662 -1.079401 -21.532066 4.309912 -7.409339 -12.378643 0.574300 8.613738 1.205833 0.000000 0.000000 0.000000 0.000000 0.000000 0.000000 12.007247 -3.852566 -42.603605 -2.572923 13.534907 0.358082 0.677016 -50.364611 -7.320379 0.000000 0.000000 0.000000 16.853449 -15.904063 -39.721967 -4.146606 -4.482215 2.175924 -21.099011 2.483853 22.111272 0.000000 0.000000 0.000000
